<?xml version="1.0" encoding="UTF-8"?><svg id="Lag_1" xmlns="http://www.w3.org/2000/svg" viewBox="0 0 384.5 384.5"><defs><style>.cls-1{fill:#fff;}</style></defs><path class="cls-1" d="m383.27,80.42v111.22h-31.84v-56.53c-37.39,37.4-74.27,74.29-111.32,111.34-21.56-21.57-42.69-42.71-63.99-64.01-28.36,28.36-56.38,56.38-84.15,84.16-7.63-7.63-15.01-15.01-22.14-22.13,35.17-35.16,70.69-70.68,106.35-106.34,20.75,20.78,41.93,41.97,62.79,62.86,29.95-29.95,59.36-59.36,88.97-88.97h-55.94v-31.6h111.27Z"/><path class="cls-1" d="m383.19,351.5v32h-3.75c-109.87,0-219.75.01-329.62,0-25.31-.01-44.25-15.74-48.98-40.59-.08-.47-.39-.89-.59-1.33V.25h32.19c-.07,1.24-.18,2.48-.18,3.73-.01,109.75.01,219.5-.06,329.24,0,6.11,1.22,11.62,6.52,15.03,2.7,1.72,6.14,2.76,9.35,3.1,4.8.52,9.71.15,14.57.15h320.55Z"/></svg>