<?xml version="1.0" encoding="UTF-8"?><svg id="Lag_1" xmlns="http://www.w3.org/2000/svg" viewBox="0 0 384.5 384.5"><defs><style>.cls-1{fill:#fff;}.cls-2{fill:#060606;}</style></defs><path class="cls-1" d="m383.55,170.51c-.07,43.04.06,86.08-.1,129.12-.06,15.23,1.21,30.52-1.52,45.67-2.26,5.23-4.51,10.47-6.77,15.7-.49.76-.98,1.51-1.47,2.26l-5.13,5.28c-.54.73-1.07,1.47-1.61,2.2-3.23,2.25-6.46,4.5-9.68,6.76-1.24.56-2.47,1.12-3.71,1.69-6.79,3.29-13.91,4.49-21.49,4.39-18.69-.24-37.39-.08-56.09-.08h-4.2v-4.43c0-32.79.13-65.58-.09-98.36-.06-8.07-.84-16.2-2.06-24.19-2.31-15.17-9.21-28.21-19.82-39.3-6.89-7.2-14.66-12.99-23.77-17.28-14.62-6.89-29.93-9.06-45.68-7.17-12.02,1.44-23.3,5.78-33.41,12.73-.29.2-.58.4-.88.6-1.95,1.53-3.9,3.07-5.85,4.6-.28.2-.55.4-.83.59-8.67,7.28-15.15,16.29-20.08,26.36-5.65,11.53-7.56,23.8-7.45,36.68.31,35.53.11,71.07.1,106.6,0,.82-.13,1.63-.21,2.57-21.7,0-43.13.07-64.56-.07-3.7-.02-7.55-.43-11.05-1.53-13.13-4.13-23.15-12.44-29.71-24.43-2.81-5.14-4.16-11.07-6.18-16.64v-174.42c7.82-6.93,15.69-13.78,23.44-20.79,8.96-8.1,17.78-16.35,26.71-24.48,2.99-2.73,6.22-5.18,9.17-7.94,5.77-5.39,11.41-10.92,17.11-16.39.22,0,.44-.01.66-.02,2.28-2.24,4.55-4.48,6.82-6.72.23,0,.45-.01.67-.02,2.27-2.24,4.55-4.48,6.82-6.71l.66-.03c2.28-2.24,4.55-4.47,6.82-6.71.23-.01.45-.01.67-.02,2.27-2.24,4.55-4.48,6.82-6.72.22,0,.44-.01.66-.02,2.28-2.24,4.55-4.48,6.83-6.72.22,0,.44,0,.66-.02,2.27-2.24,4.55-4.48,6.82-6.71l.66-.03c2.28-2.23,4.55-4.47,6.83-6.71.22-.01.44-.01.66-.02,2.27-2.24,4.55-4.48,6.82-6.72.22,0,.44,0,.67-.02,2.27-2.24,4.54-4.48,6.82-6.72.22,0,.44-.01.66-.02,2.27-2.24,4.55-4.48,6.82-6.71.22-.01.44-.02.67-.03,2.27-2.23,4.54-4.47,6.82-6.71.22,0,.44,0,.66-.02,2.28-2.24,4.55-4.48,6.82-6.72.22,0,.45-.01.67-.02,6.56-5.86,14.05-9.69,22.92-10.48,9.76-.87,17.45,4.75,25.46,8.81,2.68,1.35,3.73,5.2,7.44,6.87,2.67,1.2,4.09,5.2,7.67,6.95,2.64,1.3,3.74,4.9,7.29,6.52,2.68,1.22,4.08,5.21,7.68,6.95,2.65,1.28,3.56,5.07,7.35,6.44,3.24,1.17,5.53,5.01,8.22,7.69,3.88,3.86,7.73,7.73,11.6,11.6.17.18.34.37.53.52,3.43,2.69,7.03,5.18,10.24,8.1,4.05,3.67,7.78,7.68,11.64,11.55.18.18.34.37.54.52,3.38,2.65,6.98,5.06,10.11,7.98,7.75,7.23,15.13,14.86,22.94,22.01,10.91,9.99,22.12,19.65,33.13,29.53,6.35,5.69,12.42,11.71,18.94,17.2,2.08,1.75,2.68,3.31,2.68,5.81Z"/><path class="cls-1" d="m239.75,271.61c.05,36.67.03,73.33.03,109.99,0,.49-.04.97-.08,1.68h-95.73v-3.46c0-37.66-.14-75.32.13-112.98.05-7.13,2.35-13.99,7.09-19.76,1.74-2.12,2.92-4.71,4.64-6.86,7.5-9.37,17.5-14.14,29.28-15.51.65.75,1.31,1.5,1.96,2.24.86-.92,1.71-1.85,2.56-2.78h4.49c.82.93,1.63,1.85,2.45,2.78.68-.68,1.36-1.35,2.04-2.03,8.1.48,15.16,3.74,21.59,8.41,10.34,7.5,16.03,17.99,18.74,30.23.58,2.62.8,5.37.81,8.05Z"/><path class="cls-1" d="m198.61,224.92c-.68.68-1.36,1.35-2.04,2.03-.82-.93-1.63-1.85-2.45-2.78,1.5.25,3,.5,4.49.75Z"/><path class="cls-1" d="m189.63,224.17c-.85.93-1.7,1.86-2.56,2.78-.65-.74-1.31-1.49-1.96-2.24,1.51-.18,3.01-.36,4.52-.54Z"/><path class="cls-2" d="m166.69,15.42c.16.18.32.35.48.52-.22,0-.45.02-.67.02.06-.18.12-.36.19-.54Z"/><path class="cls-2" d="m159.2,22.16c.16.17.32.34.48.52-.22.01-.44.01-.66.02l.18-.54Z"/><path class="cls-2" d="m151.71,28.9c.17.17.33.34.49.51-.23.01-.45.02-.67.03l.18-.54Z"/><path class="cls-2" d="m144.23,35.64l.48.51c-.22,0-.44.02-.66.02.06-.18.12-.35.18-.53Z"/><path class="cls-2" d="m136.74,42.37c.16.18.32.35.49.52-.23.01-.45.02-.67.02l.18-.54Z"/><path class="cls-2" d="m129.26,49.11c.16.17.32.34.48.52-.22.01-.44.01-.66.02l.18-.54Z"/><path class="cls-2" d="m121.77,55.85l.48.51-.66.03.18-.54Z"/><path class="cls-2" d="m114.29,62.59l.48.51c-.22.01-.44.02-.66.02.06-.18.12-.35.18-.53Z"/><path class="cls-2" d="m106.8,69.32c.16.18.32.35.48.52-.22.01-.44.02-.66.02l.18-.54Z"/><path class="cls-2" d="m99.32,76.06c.16.17.32.34.48.52-.22.01-.44.01-.67.02.07-.18.13-.36.19-.54Z"/><path class="cls-2" d="m91.83,82.8l.48.51-.66.03.18-.54Z"/><path class="cls-2" d="m84.35,89.54l.48.51c-.22.01-.44.02-.67.02.06-.18.13-.35.19-.53Z"/><path class="cls-2" d="m76.86,96.27c.16.18.32.35.48.52-.22.01-.44.02-.66.02l.18-.54Z"/></svg>