<?xml version="1.0" encoding="UTF-8"?><svg id="Lag_1" xmlns="http://www.w3.org/2000/svg" viewBox="0 0 384.5 384.5"><defs><style>.cls-1{fill:#fff;}</style></defs><path class="cls-1" d="m381.74,137.51c-1.47.88-2.51,1.54-3.58,2.16-14.14,8.17-28.25,16.37-42.44,24.44-1.96,1.11-2.51,2.23-2.13,4.43,2.69,15.5,2.7,31.03.02,46.53-.42,2.42.27,3.55,2.32,4.68,7.83,4.37,15.57,8.91,23.34,13.4,7.41,4.29,14.82,8.59,22.51,13.04-16.04,27.8-31.9,55.28-47.89,82.99-16.34-9.43-32.39-18.7-48.6-28.06-13.6,11.54-28.75,20.25-45.64,26.36v55.75h-95.67v-55.83c-16.75-6.03-31.89-14.74-45.48-26.26-16.22,9.36-32.27,18.62-48.63,28.06-15.99-27.72-31.85-55.21-47.83-82.9,1.29-.8,2.31-1.48,3.36-2.09,14.03-8.1,28.03-16.25,42.12-24.24,2.3-1.31,3.01-2.55,2.55-5.27-2.6-15.24-2.6-30.54.02-45.79.43-2.52-.13-3.75-2.36-5.01-14.1-7.99-28.09-16.15-42.12-24.26-1.14-.66-2.26-1.35-3.59-2.15,16.05-27.83,31.91-55.3,47.85-82.94,8.36,4.83,16.35,9.43,24.32,14.03,8.09,4.67,16.17,9.33,24.32,14.04,13.11-11.08,27.52-19.57,43.4-25.6,1-.38,1.96-2.38,1.97-3.63.13-17.71.09-35.43.09-53.14h95.81c0,17.59.06,35.18-.07,52.77-.02,2.55.76,3.64,3.14,4.52,12.81,4.77,24.67,11.33,35.55,19.61,2.35,1.8,4.68,3.62,7,5.42,16.26-9.39,32.28-18.64,48.5-28,16.07,27.86,31.92,55.33,47.84,82.94Zm-189.93,102.25c26.5.07,47.99-21.48,47.97-48.11-.02-26.11-21.54-47.64-47.65-47.68-26.49-.03-48.07,21.28-48.16,47.56-.08,26.63,21.28,48.16,47.84,48.23Z"/></svg>