<?xml version="1.0" encoding="UTF-8"?><svg id="Lag_1" xmlns="http://www.w3.org/2000/svg" viewBox="0 0 384.5 384.5"><defs><style>.cls-1{fill:#fff;}</style></defs><path d="m287.6,191.88c52.96-.05,95.95,42.94,95.9,95.9-.06,52.8-42.94,95.67-95.73,95.72-52.93.04-95.94-42.98-95.89-95.92.05-52.79,42.92-95.65,95.72-95.7Zm52.58,92.79c3.69-3.64,7.28-7.38,11.15-11.3-7.68-7.29-15.24-14.46-23.01-21.83-16.54,16.26-33.57,33.02-50.81,49.97-8.76-8.46-17.33-16.76-24.73-23.91-8.01,7.26-15.82,14.33-23.72,21.48,9.79,9.48,19.09,18.5,28.39,27.52,12.57,12.2,27.81,12.11,40.36-.23,14.13-13.9,28.27-27.78,42.37-41.7Z"/><path class="cls-1" d="m287.69,155.69v4.19c-22.79.25-43.76,5.78-63.92,17.15v-16.88H64.32v31.89h138.53c-28.07,26.2-42.82,57.85-42.83,95.61-.02,37.84,14.81,69.57,42.97,95.85H.25V42.17c.22-.57.55-1.11.65-1.7C3.52,25.57,11.31,14.08,24.47,6.78c5.44-3.02,11.77-4.4,17.7-6.53h203.6c.44.2.86.51,1.32.59,24.88,4.73,40.58,23.65,40.59,48.97.02,35.29.01,70.58.01,105.88Zm-64.05-43.92v-31.34H64.29v31.34h159.35Zm-95.87,159.79v-31.58h-63.47v31.58h63.47Z"/><path class="cls-1" d="m287.6,191.88c52.96-.05,95.95,42.94,95.9,95.9-.06,52.8-42.94,95.67-95.73,95.72-52.93.04-95.94-42.98-95.89-95.92.05-52.79,42.92-95.65,95.72-95.7Zm52.58,92.79c3.69-3.64,7.28-7.38,11.15-11.3-7.68-7.29-15.24-14.46-23.01-21.83-16.54,16.26-33.57,33.02-50.81,49.97-8.76-8.46-17.33-16.76-24.73-23.91-8.01,7.26-15.82,14.33-23.72,21.48,9.79,9.48,19.09,18.5,28.39,27.52,12.57,12.2,27.81,12.11,40.36-.23,14.13-13.9,28.27-27.78,42.37-41.7Z"/></svg>