<?xml version="1.0" encoding="UTF-8"?><svg id="Lag_1" xmlns="http://www.w3.org/2000/svg" viewBox="0 0 384.5 384.5"><defs><style>.cls-1{fill:#fff;}</style></defs><path d="m287.54,191.88c52.9-.08,95.98,42.95,95.96,95.84-.02,52.74-42.94,95.7-95.67,95.78-52.87.07-95.97-42.99-95.95-95.86.03-52.74,42.93-95.68,95.66-95.76Zm15.85,143.53v-47.54h-31.33v47.54h31.33Zm-.09-63.84v-31.59h-31.29v31.59h31.29Z"/><path class="cls-1" d="m287.4,112.03v47.58c-48.14,2.19-85.93,22.49-110.09,64.21-24.21,41.82-22.9,84.77-.52,127.68h-3.66c-56.51,0-113.02,0-169.53-.01-1.11,0-2.23-.11-3.35-.18V42.17c.22-.57.54-1.12.64-1.7C3.43,25.84,10.94,14.41,23.82,7.14c5.62-3.17,12.2-4.64,18.35-6.89h133.99c-.07.74-.18,1.49-.18,2.23-.01,35.55-.01,71.1,0,106.66,0,.83.15,1.66.27,2.89h111.15Z"/><path d="m276.55,79.93h-68.52V11.38c22.75,22.77,45.75,45.77,68.52,68.55Z"/><path class="cls-1" d="m287.54,191.88c52.9-.08,95.98,42.95,95.96,95.84-.02,52.74-42.94,95.7-95.67,95.78-52.87.07-95.97-42.99-95.95-95.86.03-52.74,42.93-95.68,95.66-95.76Zm15.85,143.53v-47.54h-31.33v47.54h31.33Zm-.09-63.84v-31.59h-31.29v31.59h31.29Z"/><path class="cls-1" d="m276.55,79.93h-68.52V11.38c22.75,22.77,45.75,45.77,68.52,68.55Z"/></svg>